PathFileType	4	(X/Y/Z)	 s01c0201.trc
DataRate	CameraRate	NumFrames	NumMarkers	Units	OrigDataRate	OrigDataStartFrame	OrigNumFrames
200	200	7	48	mm	200	1501	2000
Frame#	Time	racr			lacr			c7			jug			rlel			rdr			llel			ldr			s2			lic			ric			lasi			rasi			rpsi			lpsi			rgt			lgt			rth1			rth2			rth3			rth4			rlfc			rsh1			rsh2			rsh3			rsh4			rlmal			rmmal			rcal			rtoe			rmt5			lth1			lth2			lth4			lth3			llfc			lsh1			lsh2			lsh3			lsh4			llmal			lmmal			lcal			ltoe			lmt5			SBIKE			LBIKE			RBIKE			
		X1	Y1	Z1	X2	Y2	Z2	X3	Y3	Z3	X4	Y4	Z4	X5	Y5	Z5	X6	Y6	Z6	X7	Y7	Z7	X8	Y8	Z8	X9	Y9	Z9	X10	Y10	Z10	X11	Y11	Z11	X12	Y12	Z12	X13	Y13	Z13	X14	Y14	Z14	X15	Y15	Z15	X16	Y16	Z16	X17	Y17	Z17	X18	Y18	Z18	X19	Y19	Z19	X20	Y20	Z20	X21	Y21	Z21	X22	Y22	Z22	X23	Y23	Z23	X24	Y24	Z24	X25	Y25	Z25	X26	Y26	Z26	X27	Y27	Z27	X28	Y28	Z28	X29	Y29	Z29	X30	Y30	Z30	X31	Y31	Z31	X32	Y32	Z32	X33	Y33	Z33	X34	Y34	Z34	X35	Y35	Z35	X36	Y36	Z36	X37	Y37	Z37	X38	Y38	Z38	X39	Y39	Z39	X40	Y40	Z40	X41	Y41	Z41	X42	Y42	Z42	X43	Y43	Z43	X44	Y44	Z44	X45	Y45	Z45	X46	Y46	Z46	X47	Y47	Z47	X48	Y48	Z48	
1501	7.5050	537.070866	1240.714042	-98.615507	526.581888	1228.545071	-463.783129	513.175538	1354.682849	-277.208654	499.702407	1186.337954	-274.113729	479.375859	995.401675	52.802553	655.511368	872.053482	-53.818945	454.418859	959.336896	-559.941584	654.322057	878.120557	-445.220228	-15.530560	1153.133904	-235.653011	127.785444	1164.411867	-425.033217	157.426037	1158.895716	-95.024908	136.140523	1110.585818	-403.498189	183.469100	1120.922701	-125.845952	18.341141	1194.820467	-186.867438	5.037472	1197.459874	-290.218777	120.899068	1062.603556	-56.323870	72.927294	1017.734748	-435.144760	242.706036	1014.478356	-54.041594	321.888201	992.859182	-66.767010	405.379228	962.859408	-84.985327	335.067110	1042.056349	-90.586250	476.378898	887.792341	-117.699680	394.162634	811.114502	-80.555110	337.011904	748.345323	-82.260186	271.328255	688.808860	-87.834919	369.696407	715.714416	-121.449158	173.980129	619.359882	-97.355892	209.860001	595.833603	-176.122282	131.086218	635.965092	-153.265453	247.944744	390.833959	-135.219963	172.547579	468.502074	-67.627141	127.020989	898.742201	-436.022658	189.964230	835.545425	-436.412563	229.642923	872.952217	-437.148144	244.158735	771.227592	-418.177564	304.485510	671.005438	-402.150755	258.204593	570.515583	-438.190889	246.240153	484.575613	-432.862918	231.658857	400.677218	-420.134473	301.281214	479.137126	-405.555316	288.224479	247.031258	-342.887013	243.002596	298.280351	-327.563946	164.213981	241.372842	-364.931190	438.175753	203.939330	-373.145692	332.368646	184.653811	-438.961633	-223.190199	893.503351	-249.245055	-12.126039	84.426518	-453.784315	-20.269352	80.861317	-53.750179	
1502	7.5100	536.222686	1241.848290	-96.983411	527.404472	1229.079127	-462.697881	513.041074	1355.249559	-276.025453	499.975833	1187.144038	-272.827846	479.576721	996.352042	54.441613	655.496366	872.424889	-53.288468	454.970969	960.095066	-559.624686	654.540923	878.056363	-444.969572	-15.376080	1152.844460	-235.862195	127.548084	1163.433408	-424.502422	157.450283	1159.309266	-94.771737	136.156549	1110.192329	-403.583555	183.690536	1121.655391	-126.258038	18.422133	1194.543983	-187.124210	5.115808	1197.327713	-290.380999	120.978092	1063.017195	-56.186875	71.929999	1017.575957	-435.226724	242.862717	1016.451985	-53.437544	322.350671	996.806450	-66.504129	406.364328	968.910170	-84.724291	334.052464	1046.689497	-89.367510	479.412358	896.644629	-117.987297	397.824668	819.943628	-80.975979	341.075718	757.405068	-82.769724	275.403175	697.630882	-88.466743	374.472613	725.199976	-120.503354	177.974862	626.835222	-98.654955	213.929592	604.119433	-177.578830	134.138216	641.388005	-154.306231	259.047170	400.599906	-134.049690	180.259996	475.535193	-68.053688	123.744725	897.989232	-436.878806	185.152181	833.387062	-438.341796	225.591173	869.926408	-438.118812	238.093185	767.760698	-419.937812	295.857266	666.069821	-403.886476	249.062289	566.022921	-439.753587	236.999458	480.128125	-433.754480	222.334645	396.258588	-420.728305	292.395322	474.588936	-407.162871	275.725517	245.423834	-346.409936	235.345681	293.613722	-328.186753	155.924717	237.034215	-365.064346	429.456096	197.466867	-373.362399	323.432766	178.755857	-439.124545	-223.245124	893.491791	-249.266657	-12.143811	84.421707	-453.798435	-20.280541	80.892014	-53.751475	
1503	7.5150	535.372624	1242.910876	-95.189575	528.251381	1229.694498	-461.458158	512.967874	1355.779356	-274.699157	500.367636	1187.858919	-271.556065	479.817698	997.261199	55.892674	655.491581	872.794264	-52.773828	455.511385	960.857261	-559.194790	654.671551	878.094017	-444.660834	-15.311127	1152.704677	-236.072908	127.693237	1162.499270	-424.133274	157.392334	1159.899055	-94.520587	136.168955	1109.959838	-403.694580	183.697150	1122.357774	-126.297203	18.444899	1194.380379	-187.377712	5.181337	1197.348312	-290.565114	120.987189	1063.506481	-56.034924	70.923205	1017.589362	-435.451892	242.703181	1018.447982	-53.018288	322.435772	1000.563306	-66.285151	406.746939	974.794504	-84.229269	333.084826	1050.910013	-88.661926	482.234464	905.386844	-118.071904	401.205753	828.961308	-81.711410	344.646699	766.260732	-83.312867	279.151832	706.123870	-89.077435	378.321271	733.244206	-120.962668	181.980852	633.356184	-100.030619	218.372264	611.239885	-178.112938	137.468921	646.008258	-155.433655	269.760467	409.000118	-134.288764	188.291742	481.871519	-68.491554	120.519101	897.515147	-437.793850	180.443454	831.705707	-439.599897	221.819177	867.343440	-439.577783	232.156237	764.964782	-420.953250	287.503709	661.829975	-405.708171	240.173831	562.101808	-441.076671	227.837423	476.160061	-434.743778	212.927253	392.491718	-421.315600	283.538683	470.503964	-408.893317	262.867161	244.468545	-350.113072	227.525545	289.446728	-328.800926	147.428209	233.631749	-365.199255	420.532659	191.462331	-373.540073	314.359070	173.492247	-439.186162	-223.310425	893.496785	-249.335476	-12.158396	84.418278	-453.808569	-20.291331	80.884783	-53.749169	
1504	7.5200	534.566491	1243.817450	-93.394200	529.169582	1230.366411	-460.119950	513.000645	1356.323808	-273.347503	500.600551	1188.462367	-270.107607	480.057550	998.071160	57.244326	655.537190	873.188816	-52.310829	456.058794	961.859901	-558.734612	654.807086	878.160634	-444.356170	-15.302327	1152.778858	-236.257068	128.503802	1161.790439	-424.002135	157.237108	1160.605566	-94.219684	136.167320	1109.892027	-403.836265	183.593246	1123.094001	-126.335891	18.417611	1194.357607	-187.643805	5.231976	1197.528903	-290.768840	120.920287	1064.033107	-55.906139	69.755326	1017.730216	-435.490333	242.260376	1020.554060	-52.841304	322.299549	1004.206290	-66.032976	406.776473	980.021330	-84.131548	332.069464	1054.969382	-88.200259	484.872668	913.602960	-118.227490	404.166431	837.572987	-82.128468	347.897429	774.680658	-83.750473	282.707303	714.112697	-89.676963	382.143850	741.200440	-120.752264	186.281931	638.832386	-101.656724	223.763646	617.691738	-179.054660	141.300527	649.867761	-156.792916	280.493268	416.824891	-134.166075	196.839403	487.879741	-68.521877	117.345261	897.331599	-438.720072	175.900494	830.119489	-440.770372	218.349406	865.103642	-441.024779	226.348835	762.652503	-422.321761	279.639474	658.252056	-407.452042	231.654965	558.629010	-442.459630	218.784477	472.912348	-435.655504	203.690812	389.179879	-421.685169	274.854416	467.014422	-410.700936	249.734540	244.151258	-353.957221	219.574370	285.794398	-329.399554	138.804128	230.963066	-365.277616	411.380114	185.929039	-373.694295	304.996614	168.923243	-439.361822	-223.351846	893.506862	-249.369784	-12.171155	84.413010	-453.787169	-20.305810	80.907160	-53.749138	
1505	7.5250	533.733393	1244.752725	-91.457702	530.161150	1230.999367	-458.636033	513.109794	1356.828794	-271.892867	500.785834	1188.988510	-268.842222	480.184461	998.805449	58.576972	655.617642	873.513942	-51.861762	456.560642	962.927456	-558.281923	654.956183	878.307421	-444.062347	-15.353783	1152.989835	-236.456678	129.361774	1161.100214	-423.849179	156.890314	1161.329789	-94.265817	136.142572	1109.992061	-404.014708	183.325120	1124.041409	-126.296207	18.331416	1194.474737	-187.894992	5.262163	1197.869520	-290.992184	120.731545	1064.656211	-56.391648	68.729184	1018.201549	-435.847662	241.580436	1022.721666	-53.061582	321.990234	1007.776564	-65.971359	406.926412	985.146843	-83.998309	331.068758	1058.810198	-87.882961	486.642080	921.564857	-118.125016	406.724734	845.723089	-82.545178	350.923742	782.437708	-84.216979	286.191818	721.526966	-90.205094	385.892277	748.864007	-120.300964	191.097934	643.385265	-103.037527	229.286203	623.339093	-179.961257	145.110246	652.793279	-158.000453	291.406523	424.137923	-133.837586	205.190156	492.811582	-69.309506	114.266946	897.364562	-439.619977	171.494034	828.832283	-441.794215	214.634741	863.270140	-442.564207	220.829678	760.628520	-423.662311	272.198730	655.389464	-409.231356	223.291850	555.870972	-443.833553	210.022842	470.257456	-436.550356	194.541049	386.626341	-422.194255	266.347648	464.057834	-412.472131	236.412784	244.457842	-357.903185	211.524336	282.671758	-329.975720	130.055462	229.189335	-365.402137	402.026201	180.865856	-373.903075	295.434912	164.967612	-439.391006	-223.423526	893.523314	-249.395408	-12.182751	84.447729	-453.802815	-20.316430	80.901039	-53.775328	
1506	7.5300	532.951685	1245.599704	-89.519031	531.195674	1231.645445	-457.026796	513.283089	1357.254010	-270.323314	500.937983	1189.698687	-267.203312	480.284626	999.305537	59.840562	655.738226	873.771805	-51.530406	457.149932	964.271011	-558.014662	655.133858	878.471727	-443.809266	-15.464972	1153.306865	-236.722045	130.023926	1160.506190	-423.243015	156.705431	1162.464128	-93.784403	136.080777	1110.278409	-404.273028	182.934098	1125.104146	-126.323790	18.166356	1194.727972	-188.133189	5.266485	1198.369423	-291.242918	120.608592	1065.703560	-56.246207	67.579669	1018.840321	-436.230569	240.744054	1025.000078	-53.485623	321.504080	1011.220060	-66.113331	406.874449	989.957984	-84.021135	330.055626	1062.485846	-87.726861	488.041408	929.171638	-117.966439	409.008139	853.376622	-83.178985	353.714328	789.825735	-84.596838	289.367931	728.296717	-90.561601	389.518100	755.970883	-119.730721	195.676269	647.431851	-104.297352	235.264496	628.201928	-181.203339	149.327757	654.841806	-159.362075	302.421814	430.878393	-133.660060	214.024612	497.259572	-69.638675	111.353559	897.623618	-440.516607	167.344691	828.004393	-442.942342	211.086865	861.782484	-444.361164	215.372198	759.092743	-425.699641	265.355743	653.118114	-410.922146	215.132151	553.807434	-445.096275	201.482457	468.353732	-437.370449	185.715421	384.783065	-422.620266	258.121923	461.844655	-414.110058	222.987022	245.374162	-361.911762	203.407625	280.093836	-330.522510	121.183353	228.229093	-365.573030	392.490071	176.446434	-374.112178	285.601507	161.727948	-439.533577	-223.487106	893.497044	-249.422497	-12.186204	84.428429	-453.808667	-20.322958	80.909032	-53.769361	
1507	7.5350	532.140305	1246.236169	-87.498835	532.295731	1232.267369	-455.280666	513.494155	1357.662397	-268.724917	501.004942	1190.107544	-265.844683	480.365731	999.717955	60.931134	655.854095	874.005507	-51.219155	457.705256	965.551304	-557.552356	655.363564	878.652032	-443.614066	-15.627195	1153.851871	-236.965582	131.222671	1160.422594	-423.209803	156.199808	1163.231575	-94.046544	135.980813	1110.753915	-404.608506	182.388040	1126.399197	-126.418495	17.952879	1195.120300	-188.397507	5.246350	1199.026670	-291.533588	120.424641	1066.932572	-56.125891	66.427033	1019.643674	-436.655673	239.933434	1027.434323	-54.188723	320.927707	1014.620065	-66.528494	406.721662	994.285931	-84.374475	329.015565	1066.147923	-87.696993	488.987345	936.266074	-117.688265	411.015837	860.878460	-83.422215	356.381775	796.334833	-85.011779	292.763411	734.268919	-90.846946	393.057491	762.525489	-119.093418	200.574894	650.422881	-105.514793	241.257560	631.909508	-181.910663	153.816653	656.102968	-160.425441	313.404237	436.881397	-133.494109	222.961955	500.976412	-69.983301	108.535307	898.193084	-441.333872	163.436659	827.409928	-444.067128	207.770337	860.642953	-446.302009	210.448474	757.820681	-427.303783	259.158847	651.432804	-412.649784	207.711444	552.389658	-446.151079	193.461451	467.132626	-438.100668	177.102150	383.730608	-423.004283	250.387003	460.136569	-415.639333	209.542382	246.886088	-365.943754	195.256418	278.075659	-331.033012	112.241423	227.907197	-365.644337	382.817750	172.588464	-374.297916	275.663922	159.149235	-439.586863	-223.540381	893.511501	-249.467795	-12.190927	84.440619	-453.807248	-20.329671	80.923980	-53.782084	
